PathFileType	4	(X/Y/Z)	C:\Users\Basilio\Documents\Thesis Gigler\squatting_fais\c3dfiles\041\SLS_pre_front3\markers_experimental.trc
DataRate	CameraRate	NumFrames	NumMarkers	Units	OrigDataRate	OrigDataStartFrame	OrigNumFrames
200.000000	200.000000	4	62	mm	200.000000	0	1622
Frame#	Time	FHD			LBHD			RBHD			C7			T10			CLAV			LSHO			LUUPA			LMUPA			LDUPA			LLEP			LMEP			LRAD			LUL			LRFIN			RSHO			RUPA1			RMUPA			RDUPA			RLEP			RMEP			RRAD			RUL			RUFIN			LASI			RASI			USACR			LSACR			RSACR			LTHI1			LTHI2			LTHI3			LTHI4			LLFC			LMFC			LTIB1			LTIB2			LTIB3			LTIB4			LLMAL			LMMAL			LHEE			LMT1			LMT2			LMT5			RTHI			RTHI2			RTHI3			RTHI4			RLFC			RMFC			RTIB1			RTIB2			RTIB3			RTIB4			RLMAL			RMMAL			RHEE			RMT1			RMT2			RMT5			*61			
		X1	Y1	Z1	X2	Y2	Z2	X3	Y3	Z3	X4	Y4	Z4	X5	Y5	Z5	X6	Y6	Z6	X7	Y7	Z7	X8	Y8	Z8	X9	Y9	Z9	X10	Y10	Z10	X11	Y11	Z11	X12	Y12	Z12	X13	Y13	Z13	X14	Y14	Z14	X15	Y15	Z15	X16	Y16	Z16	X17	Y17	Z17	X18	Y18	Z18	X19	Y19	Z19	X20	Y20	Z20	X21	Y21	Z21	X22	Y22	Z22	X23	Y23	Z23	X24	Y24	Z24	X25	Y25	Z25	X26	Y26	Z26	X27	Y27	Z27	X28	Y28	Z28	X29	Y29	Z29	X30	Y30	Z30	X31	Y31	Z31	X32	Y32	Z32	X33	Y33	Z33	X34	Y34	Z34	X35	Y35	Z35	X36	Y36	Z36	X37	Y37	Z37	X38	Y38	Z38	X39	Y39	Z39	X40	Y40	Z40	X41	Y41	Z41	X42	Y42	Z42	X43	Y43	Z43	X44	Y44	Z44	X45	Y45	Z45	X46	Y46	Z46	X47	Y47	Z47	X48	Y48	Z48	X49	Y49	Z49	X50	Y50	Z50	X51	Y51	Z51	X52	Y52	Z52	X53	Y53	Z53	X54	Y54	Z54	X55	Y55	Z55	X56	Y56	Z56	X57	Y57	Z57	X58	Y58	Z58	X59	Y59	Z59	X60	Y60	Z60	X61	Y61	Z61	X62	Y62	Z62	

1	0	-214.0330047607422	1791.153564453125	-935.4409790039065	-387.6900329589845	1714.47412109375	-1010.185241699219	-364.1255187988282	1712.567993164063	-858.8031005859377	-412.4728088378907	1563.95849609375	-948.3819580078127	-428.714569091797	1247.417602539063	-938.6553344726565	-252.4302673339844	1509.515869140625	-956.1092529296877	-359.6094360351563	1557.923461914063	-1120.522094726563	-412.836395263672	1365.09716796875	-1201.015747070313	-376.5949096679688	1332.828247070313	-1200.179931640625	-425.3316345214845	1297.297729492188	-1212.204345703125	-431.8059082031251	1247.478271484375	-1212.609008789063	-419.8164672851564	1213.047119140625	-1132.288818359375	-286.5629577636719	1008.462036132813	-1239.037841796875	-358.5255432128907	996.3212890625002	-1258.910400390625	-262.1598510742188	946.638854980469	-1280.881713867188	-323.6308898925782	1556.053466796875	-780.1888427734377	-409.5809936523439	1358.522094726563	-686.4063720703126	-362.7075500488282	1341.646118164063	-679.9549560546876	-394.4579467773439	1292.420043945313	-667.3981323242189	-393.9837036132814	1247.478515625	-658.9141845703126	-403.2461242675782	1219.876586914063	-744.6148071289064	-254.3835601806641	1019.810180664063	-671.9268798828126	-320.8436584472657	1000.9287109375	-640.1217041015626	-217.5442199707032	956.597595214844	-641.5297851562501	-259.4817810058594	1063.197143554688	-1056.676391601563	-257.6971130371094	1058.79345703125	-828.935241699219	-435.154266357422	1133.414794921875	-939.508239746094	-451.0458374023439	1107.577026367188	-965.9143676757815	-456.1795654296876	1107.974609375	-913.1491699218752	-380.8352050781251	857.583923339844	-1126.454467773438	-345.4515991210938	780.2398071289065	-1124.341552734375	-297.2517395019532	783.3004150390627	-1115.931884765625	-373.3773193359376	727.6875610351564	-1114.495971679688	-357.2339477539063	546.6753540039064	-1105.74853515625	-348.5741577148438	523.3186645507814	-986.333679199219	-321.6673583984376	353.6143493652344	-1055.118408203125	-368.9295654296876	310.7304687500001	-1120.029296875	-330.7853088378907	307.8203430175782	-1093.1806640625	-330.6175842285157	228.5018768310547	-1063.795532226563	-385.5882568359376	134.9003295898438	-1104.354370117188	-346.6661987304688	137.8977355957032	-1024.030517578125	-449.6068725585939	118.2491760253907	-1063.384155273438	-242.2920227050782	64.39452362060548	-1039.459716796875	-235.8008422851563	59.73686981201173	-1085.204833984375	-284.5901794433594	44.86902236938477	-1137.906372070313	-367.0882873535157	797.7316894531252	-749.1866455078126	-327.3756713867188	745.0726928710939	-744.9455566406251	-294.4035339355469	747.7401733398439	-749.3179931640626	-351.5425720214844	664.6525268554689	-759.4116821289064	-344.0281066894532	539.4913330078126	-754.2432250976564	-324.2098388671876	515.7408447265626	-871.0225830078127	-312.6609802246094	371.2625122070313	-754.0634155273439	-396.3876953125001	297.6834716796876	-736.8521118164064	-349.6508178710938	293.9664001464844	-735.7073364257814	-327.4859619140626	244.3294067382813	-761.4569091796876	-386.7767028808595	131.8126525878907	-743.6498413085939	-355.6477355957032	142.1076812744141	-821.1572265625002	-445.9690246582032	111.6110992431641	-793.947937011719	-238.4912567138672	56.06128311157228	-802.422058105469	-234.7040252685547	56.5506935119629	-749.4312133789064	-281.9039306640626	48.0367774963379	-701.1456909179689	-4216.587402343751	853.1558837890627	-3944.721679687501	
2	0.005	-213.9163513183594	1791.199584960938	-935.507507324219	-387.4336242675782	1714.676025390625	-1010.17138671875	-364.0767822265626	1712.596435546875	-858.8633422851565	-412.3807983398439	1563.962158203125	-948.3941650390627	-428.6382446289064	1247.415771484375	-938.6342773437502	-252.3021240234376	1509.448974609375	-956.085632324219	-359.5435791015626	1557.910278320313	-1120.511840820313	-412.7814941406251	1365.09326171875	-1200.996337890625	-376.5080261230469	1332.789916992188	-1200.175415039063	-425.2914428710939	1297.284423828125	-1212.187622070313	-431.7887573242189	1247.485717773438	-1212.591430664063	-419.740692138672	1213.031372070313	-1132.2744140625	-287.0396423339844	1008.178161621094	-1239.134155273438	-358.9613952636719	996.2114868164065	-1258.988525390625	-262.7813415527344	946.3457031250002	-1281.076904296875	-323.6068725585938	1556.032348632813	-780.1558227539065	-409.7378234863282	1358.518310546875	-686.4354858398439	-362.7640380859376	1341.655029296875	-679.9431762695314	-394.5840454101564	1292.416870117188	-667.3947753906251	-394.0951232910157	1247.488037109375	-658.9367065429689	-403.3830871582032	1219.936401367188	-744.6450805664064	-254.7646484375001	1019.49853515625	-671.8696899414064	-321.5822753906251	1000.802001953125	-639.9738159179689	-218.5127716064454	956.177673339844	-641.2558593750001	-259.3913879394532	1063.127563476563	-1056.601440429688	-257.7290954589844	1058.727661132813	-828.9003906250002	-435.0823974609376	1133.419311523438	-939.4899902343752	-450.980438232422	1107.5654296875	-965.8933715820315	-456.0735168457032	1107.974609375	-913.109558105469	-380.7945556640626	857.588806152344	-1126.473999023438	-345.3539733886719	780.236755371094	-1124.340942382813	-297.1890258789063	783.274108886719	-1115.900512695313	-373.2643127441407	727.6914672851564	-1114.492431640625	-357.2253723144532	546.6177368164064	-1105.704223632813	-348.5400085449219	523.3472290039064	-986.3206176757815	-321.6673583984376	353.6143493652344	-1055.118408203125	-368.9186096191407	310.7327270507813	-1120.032104492188	-330.8088073730469	307.8225708007813	-1093.21044921875	-330.6466979980469	228.5158233642579	-1063.788818359375	-385.5787658691407	134.8950653076172	-1104.32861328125	-346.6661682128907	137.8968505859375	-1024.04443359375	-449.6029357910157	118.2454452514649	-1063.405517578125	-242.2531433105469	64.39127349853517	-1039.496337890625	-235.7749023437501	59.73993301391603	-1085.238159179688	-284.5821228027344	44.88521957397462	-1137.925537109375	-367.0611267089844	797.6929321289065	-749.1573486328126	-327.3590087890626	745.0472412109376	-744.8909301757814	-294.3279724121094	747.7427368164064	-749.2925415039064	-351.5222473144532	664.6409912109376	-759.4036254882814	-343.9997253417969	539.4951782226564	-754.2031250000001	-324.2106933593751	515.7595825195314	-870.9791259765627	-312.6494750976563	371.2503051757813	-754.0427856445314	-396.3990173339845	297.6645202636719	-736.8624267578126	-349.6671752929688	293.9409484863282	-735.6942749023439	-327.1004333496094	243.8461303710938	-761.6044311523439	-386.7746887207032	131.7904815673828	-743.6464843750001	-355.6760559082032	142.1038055419922	-821.1482543945315	-445.9631652832032	111.6014709472657	-793.9519042968752	-238.4571075439454	56.11415863037111	-802.4445800781252	-234.6930084228516	56.527889251709	-749.4562988281251	-281.8961486816407	48.03974533081056	-701.1312255859376	-4216.510742187501	853.1064453125002	-3944.728759765626	
3	0.01	-213.8331146240235	1791.227172851563	-935.5642700195315	-387.2803039550782	1714.652221679688	-1010.221801757813	-363.9570617675782	1712.574462890625	-858.8528442382815	-412.2991943359376	1563.94384765625	-948.3437500000002	-428.5504150390626	1247.382690429688	-938.653503417969	-252.1272277832032	1509.445068359375	-956.070739746094	-359.4103698730469	1557.893920898438	-1120.479248046875	-412.7052612304689	1365.036499023438	-1200.990478515625	-376.4540100097657	1332.773681640625	-1200.170043945313	-425.2243041992189	1297.276733398438	-1212.16015625	-431.7753906250001	1247.485473632813	-1212.552856445313	-419.740692138672	1213.031372070313	-1132.2744140625	-287.4704895019532	1007.894287109375	-1239.3310546875	-359.5406494140626	996.1092529296877	-1259.05712890625	-263.3872070312501	945.9919433593752	-1281.251831054688	-323.5633239746094	1556.048706054688	-780.0996704101565	-409.8467712402345	1358.539306640625	-686.4479980468751	-362.8847045898438	1341.653442382813	-679.9431762695314	-394.6839904785157	1292.416259765625	-667.4375000000001	-394.187469482422	1247.481811523438	-658.9389648437501	-403.4544067382814	1219.95166015625	-744.6377563476564	-255.4660339355469	1019.06396484375	-671.5122070312501	-322.2885742187501	1000.727661132813	-639.8243408203126	-219.0798034667969	955.6979980468752	-641.1254882812501	-259.4122009277344	1063.134887695313	-1056.586059570313	-257.6576538085938	1058.718505859375	-828.8868408203127	-435.0145568847657	1133.418823242188	-939.5105590820315	-450.9526977539064	1107.599609375	-965.8767089843752	-451.1109924316407	1107.583862304688	-911.7266235351565	-380.6683044433594	857.5731201171877	-1126.46240234375	-345.2961730957032	780.2078857421877	-1124.330932617188	-297.1357727050782	783.310974121094	-1115.896606445313	-373.2568664550782	727.7171020507814	-1114.458618164063	-357.1872253417969	546.6504516601564	-1105.696533203125	-348.5220642089844	523.3043212890626	-986.3063964843752	-321.6673583984376	353.6143493652344	-1055.118408203125	-368.8977050781251	310.7688903808594	-1120.023315429688	-330.8497314453126	307.8146362304688	-1093.201782226563	-330.6213073730469	228.4825286865235	-1063.797119140625	-385.5666503906251	134.8760070800782	-1104.321533203125	-346.6554260253907	137.8828887939453	-1024.06591796875	-449.628143310547	118.2710342407227	-1063.387084960938	-242.3049621582032	64.36205291748048	-1039.475219726563	-235.8804168701172	58.96920013427736	-1085.60693359375	-284.6001892089844	44.88320541381837	-1137.909057617188	-367.0107421875001	797.6971435546877	-749.1119995117189	-327.2917785644532	745.0083618164064	-744.8733520507814	-294.2483520507813	747.7164306640626	-749.2536010742189	-351.4605102539063	664.6585083007814	-759.3561401367189	-343.9800109863282	539.4978027343751	-754.1836547851564	-324.2095947265626	515.7385864257814	-870.933044433594	-312.6539306640626	371.2607727050782	-754.0388793945314	-396.3960876464845	297.6585388183594	-736.8432006835939	-349.6756591796876	293.9302062988282	-735.6892700195314	-327.4245300292969	244.0078582763672	-761.6797485351564	-386.7746887207032	131.7904815673828	-743.6464843750001	-355.6504821777344	142.1407623291016	-821.1572875976565	-445.9651489257814	111.5953979492188	-793.921325683594	-238.4944000244141	56.10891342163087	-802.4463500976565	-234.6950225830079	56.54318618774415	-749.4798583984376	-281.8947753906251	48.0197219848633	-701.1498413085939	-4216.510742187501	853.1064453125002	-3944.728759765626	
4	0.015	-213.6766204833985	1791.265380859375	-935.5922851562502	-387.4815979003907	1714.379028320313	-1010.264038085938	-363.9380493164063	1712.639404296875	-858.8516235351565	-412.2369689941407	1563.961181640625	-948.364196777344	-428.5240478515626	1247.411254882813	-938.6345214843752	-252.0393066406251	1509.431396484375	-956.0623168945315	-359.3036193847657	1557.85546875	-1120.484130859375	-412.6269531250001	1365.0439453125	-1200.9814453125	-376.3658142089844	1332.753295898438	-1200.156494140625	-425.1580200195314	1297.261596679688	-1212.172729492188	-431.745819091797	1247.469360351563	-1212.514038085938	-419.6494750976564	1213.019897460938	-1132.276000976563	-287.8626403808594	1007.611755371094	-1239.526245117188	-360.1234130859376	996.0090942382815	-1259.156616210938	-264.2764892578126	945.7280273437502	-1281.45556640625	-323.5013427734376	1556.022216796875	-780.0928955078127	-409.8722229003907	1358.547607421875	-686.4747314453126	-362.9150695800782	1341.664306640625	-679.9102783203126	-394.7669067382814	1292.417846679688	-667.4245605468751	-394.3533630371095	1247.504760742188	-658.9700927734376	-403.5755615234376	1219.964599609375	-744.6960449218751	-256.1944274902344	1018.738159179688	-671.1582641601564	-322.9273376464844	1000.667724609375	-639.6749877929689	-219.8498229980469	955.3655395507815	-640.8769531250001	-259.3494873046876	1063.0478515625	-1056.5341796875	-257.7158508300782	1058.626708984375	-828.848815917969	-434.9485778808595	1133.41064453125	-939.489196777344	-450.9113159179689	1107.568237304688	-965.8955688476565	-451.1109924316407	1107.583862304688	-911.7266235351565	-380.6183471679688	857.612976074219	-1126.434692382813	-345.2428283691407	780.2138671875002	-1124.306640625	-297.0265808105469	783.3055419921877	-1115.885375976563	-373.1346130371094	727.7683105468751	-1114.44482421875	-357.1895751953126	546.6522827148439	-1105.69384765625	-348.5086364746094	523.3272705078126	-986.284362792969	-321.6333923339844	353.6248779296876	-1055.088989257813	-368.8862304687501	310.7676391601563	-1120.028198242188	-330.8085327148438	307.8453063964844	-1093.17919921875	-330.6184387207032	228.5072479248047	-1063.800537109375	-385.6039428710939	134.8795928955078	-1104.331420898438	-346.6948547363282	137.867660522461	-1024.04833984375	-449.6272277832032	118.2876510620117	-1063.410278320313	-242.2371215820313	64.3936004638672	-1039.475341796875	-235.8804168701172	58.96920013427736	-1085.60693359375	-284.5512084960938	44.89437103271485	-1137.907592773438	-366.9586486816407	797.6814575195315	-749.1018676757814	-327.2470703125001	745.0063476562501	-744.8322143554689	-294.2165222167969	747.7183227539064	-749.2287597656251	-351.4372253417969	664.6359252929689	-759.3611450195314	-343.9800109863282	539.4978027343751	-754.1836547851564	-324.1817016601563	515.7351074218751	-870.9125976562502	-312.6328735351563	371.2462768554688	-754.0039062500001	-396.4006347656251	297.6623229980469	-736.8274536132814	-349.6737365722657	293.9487915039063	-735.6629638671876	-327.4044494628907	244.0311431884766	-761.6310424804689	-386.7769165039064	131.7755126953125	-743.6407470703126	-355.6733398437501	142.1239166259766	-821.1176757812502	-446.0030212402345	111.6373596191407	-793.9445800781252	-238.2179412841797	55.73485183715822	-802.4360351562502	-234.7251281738282	56.52848052978517	-749.5021972656251	-281.9076538085938	48.02498626708986	-701.1279907226564	-4216.510742187501	853.1064453125002	-3944.728759765626	
